<?xml version="1.0" standalone="no"?>
<!DOCTYPE svg PUBLIC "-//W3C//DTD SVG 20010904//EN"
 "http://www.w3.org/TR/2001/REC-SVG-20010904/DTD/svg10.dtd">
<svg version="1.0" xmlns="http://www.w3.org/2000/svg"
 width="70.000000pt" height="70.000000pt" viewBox="0 0 70.000000 70.000000"
 preserveAspectRatio="xMidYMid meet">
<metadata>
Created by potrace 1.14, written by Peter Selinger 2001-2017
</metadata>
<g transform="translate(0.000000,70.000000) scale(0.100000,-0.100000)"
fill="#000000" stroke="none">
<path d="M0 350 l0 -350 350 0 350 0 0 350 0 350 -350 0 -350 0 0 -350z m223
223 c8 -21 29 -69 46 -107 l32 -70 66 103 c36 56 67 100 70 97 6 -5 -127 -216
-137 -216 -3 0 -24 39 -44 88 -55 126 -59 132 -106 132 -22 0 -40 -4 -40 -9 0
-5 44 -114 99 -242 98 -233 98 -234 132 -240 l34 -6 -37 -2 c-34 -1 -39 3 -52
32 -65 152 -196 468 -196 472 0 3 27 5 59 5 59 0 59 0 74 -37z m321 -17 c58
-58 68 -107 34 -173 -28 -57 -61 -83 -116 -90 l-41 -6 -3 -96 -3 -96 -47 112
c-27 62 -48 117 -48 124 0 6 9 23 20 39 18 25 24 27 63 23 39 -5 46 -2 65 22
28 36 28 61 -2 88 l-25 22 22 37 c11 21 24 38 29 38 5 0 28 -20 52 -44z"/>
</g>
</svg>
