<svg width="64" height="64" viewBox="0 0 64 64" fill="none" xmlns="http://www.w3.org/2000/svg">
<path d="M56.776 40.058L56.786 40.051C56.755 40.008 56.718 39.97 56.687 39.928C56.657 39.887 56.631 39.842 56.6 39.801L35.6 11.801C35.56 11.748 35.517 11.699 35.477 11.647C35.457 11.621 35.44 11.593 35.419 11.566L35.415 11.569C32.212 7.453 27.223 5 22 5C12.626 5 5 12.626 5 22C5 27.222 7.451 32.209 11.565 35.412L11.561 35.417C11.595 35.443 11.631 35.465 11.665 35.492C11.711 35.527 11.754 35.565 11.8 35.6L39.799 56.6C39.855 56.642 39.914 56.677 39.971 56.718C40.005 56.743 40.034 56.772 40.068 56.796L40.073 56.788C42.089 58.212 44.532 59 47 59C53.617 59 59 53.617 59 47C59 44.525 58.208 42.075 56.776 40.058ZM7 22C7 13.729 13.729 7 22 7C26.655 7 31.1 9.209 33.922 12.909C35.933 15.539 37 18.678 37 22C37 30.271 30.271 37 22 37C18.683 37 15.549 35.937 12.92 33.932C9.214 31.11 7 26.661 7 22ZM22 39C31.374 39 39 31.374 39 22C39 21.118 38.927 20.25 38.796 19.395L51.032 35.709C49.752 35.252 48.392 35 47 35C40.383 35 35 40.383 35 47C35 48.393 35.253 49.753 35.711 51.034L19.395 38.796C20.25 38.927 21.118 39 22 39ZM47 57C44.909 57 42.838 56.323 41.143 55.099C38.549 53.218 37 50.201 37 47C37 41.486 41.486 37 47 37C50.192 37 53.198 38.537 55.076 41.111C56.315 42.811 57 44.895 57 47C57 52.514 52.514 57 47 57Z" fill="black"/>
<path d="M59.8 37.4L38.8 9.4C34.855 4.14 28.575 1 22 1C10.42 1 1 10.42 1 22C1 28.575 4.14 34.854 9.4 38.8L37.4 59.8C40.152 61.863 43.561 63 47 63C55.822 63 63 55.822 63 47C63 43.562 61.864 40.151 59.8 37.4ZM47 61C43.991 61 41.008 60.006 38.6 58.2L10.6 37.2C5.841 33.631 3 27.948 3 22C3 11.523 11.523 3 22 3C27.949 3 33.631 5.841 37.2 10.6L58.2 38.6C60.005 41.008 61 43.992 61 47C61 54.72 54.72 61 47 61Z" fill="black"/>
<path d="M47 43C44.794 43 43 44.794 43 47C43 49.206 44.794 51 47 51C49.206 51 51 49.206 51 47C51 44.794 49.206 43 47 43ZM47 49C45.897 49 45 48.103 45 47C45 45.897 45.897 45 47 45C48.103 45 49 45.897 49 47C49 48.103 48.103 49 47 49Z" fill="black"/>
<path d="M47 39C42.589 39 39 42.589 39 47C39 51.411 42.589 55 47 55C51.411 55 55 51.411 55 47C55 42.589 51.411 39 47 39ZM47 53C43.691 53 41 50.309 41 47C41 43.691 43.691 41 47 41C50.309 41 53 43.691 53 47C53 50.309 50.309 53 47 53Z" fill="black"/>
<path d="M22 27C24.757 27 27 24.757 27 22C27 19.243 24.757 17 22 17C19.243 17 17 19.243 17 22C17 24.757 19.243 27 22 27ZM22 19C23.654 19 25 20.346 25 22C25 23.654 23.654 25 22 25C20.346 25 19 23.654 19 22C19 20.346 20.346 19 22 19Z" fill="black"/>
<path d="M22 31C26.962 31 31 26.962 31 22C31 17.038 26.962 13 22 13C17.038 13 13 17.038 13 22C13 26.962 17.038 31 22 31ZM22 15C25.86 15 29 18.14 29 22C29 25.86 25.86 29 22 29C18.14 29 15 25.86 15 22C15 18.14 18.14 15 22 15Z" fill="black"/>
<path d="M22 11C22.5523 11 23 10.5523 23 10C23 9.44772 22.5523 9 22 9C21.4477 9 21 9.44772 21 10C21 10.5523 21.4477 11 22 11Z" fill="black"/>
<path d="M11.1077 16.866C11.5857 17.142 12.1977 16.978 12.4737 16.5C12.7497 16.022 12.5857 15.41 12.1077 15.134C11.6297 14.858 11.0177 15.022 10.7417 15.5C10.4657 15.978 10.6287 16.59 11.1077 16.866Z" fill="black"/>
<path d="M12.1084 28.866C12.5864 28.59 12.7504 27.978 12.4744 27.5C12.1984 27.022 11.5864 26.858 11.1084 27.134C10.6304 27.41 10.4664 28.022 10.7424 28.5C11.0184 28.978 11.6294 29.142 12.1084 28.866Z" fill="black"/>
<path d="M22 35C22.5523 35 23 34.5523 23 34C23 33.4477 22.5523 33 22 33C21.4477 33 21 33.4477 21 34C21 34.5523 21.4477 35 22 35Z" fill="black"/>
<path d="M31.8916 28.866C32.3696 29.142 32.9816 28.978 33.2576 28.5C33.5336 28.022 33.3696 27.41 32.8916 27.134C32.4136 26.858 31.8016 27.022 31.5256 27.5C31.2496 27.978 31.4136 28.59 31.8916 28.866Z" fill="black"/>
<path d="M32.8916 16.866C33.3696 16.59 33.5336 15.978 33.2576 15.5C32.9816 15.022 32.3696 14.858 31.8916 15.134C31.4136 15.41 31.2496 16.022 31.5256 16.5C31.8016 16.978 32.4136 17.142 32.8916 16.866Z" fill="black"/>
</svg>
