<svg width="64" height="64" viewBox="0 0 64 64" fill="none" xmlns="http://www.w3.org/2000/svg">
<path d="M63 37.764L60.618 33H59V6C59 3.243 56.757 1 54 1H36C33.243 1 31 3.243 31 6V17H35V15H33V6C33 4.346 34.346 3 36 3H54C55.654 3 57 4.346 57 6V33H55.382L53 37.764V51H55V60.414L58 63.414L61 60.414V51H63V37.764ZM61 39V45H55V39H61ZM59.382 35L60.382 37H55.618L56.618 35H59.382ZM59 59.586L58 60.586L57 59.586V51H59V59.586ZM55 49V47H61V49H55Z" fill="black"/>
<path d="M12 5C8.141 5 5 8.141 5 12H7C7 9.243 9.243 7 12 7C14.757 7 17 9.243 17 12H19C19 8.141 15.859 5 12 5Z" fill="black"/>
<path d="M12 3C16.963 3 21 7.037 21 12H23C23 5.935 18.065 1 12 1C5.935 1 1 5.935 1 12H3C3 7.037 7.037 3 12 3Z" fill="black"/>
<path d="M29 33H32V54C32 55.654 30.654 57 29 57H27C27 55.897 26.103 55 25 55H23V53.729L16 41.729V31H13V14.816C14.161 14.402 15 13.302 15 12C15 10.346 13.654 9 12 9C10.346 9 9 10.346 9 12C9 13.302 9.839 14.402 11 14.816V31H8V41.73L1 53.73V63H23V61H25C26.103 61 27 60.103 27 59H29C31.757 59 34 56.757 34 54V31H29V33ZM12 11C12.552 11 13 11.448 13 12C13 12.552 12.552 13 12 13C11.448 13 11 12.552 11 12C11 11.448 11.448 11 12 11ZM14.426 43L20.259 53H3.741L9.574 43H14.426ZM14 33V41H10V33H14ZM3 61V59H19V57H3V55H21V61H3ZM25 59H23V57H25V59Z" fill="black"/>
<path d="M35 27H29V29H35V27Z" fill="black"/>
<path d="M35 23H29V25H35V23Z" fill="black"/>
<path d="M35 19H29V21H35V19Z" fill="black"/>
</svg>
