<svg width="64" height="64" viewBox="0 0 64 64" fill="none" xmlns="http://www.w3.org/2000/svg">
<path d="M47 35V34C47 32.698 46.161 31.598 45 31.184V28C45 26.698 44.161 25.598 43 25.184V14C43 9.375 39.493 5.558 35 5.059V1H29V5.059C24.507 5.558 21 9.375 21 14V25.184C19.839 25.598 19 26.698 19 28V31.184C17.839 31.598 17 32.698 17 34V35C15.897 35 15 35.897 15 37V39C15 40.103 15.897 41 17 41H19V51H23V63H29V51H33V63H43V51H45V41H47C48.103 41 49 40.103 49 39V37C49 35.897 48.103 35 47 35ZM34 7C35.902 7 37.626 7.765 38.889 9H25.111C26.374 7.765 28.098 7 30 7H34ZM33 3V5H31V3H33ZM23.685 11H40.315C40.749 11.911 41 12.926 41 14V25H35V19H36C37.654 19 39 17.654 39 16C39 14.346 37.654 13 36 13C34.346 13 33 14.346 33 16V17H31V16C31 14.346 29.654 13 28 13C26.346 13 25 14.346 25 16C25 17.654 26.346 19 28 19H29V25H23V14C23 12.926 23.251 11.911 23.685 11ZM29 17H28C27.448 17 27 16.552 27 16C27 15.448 27.448 15 28 15C28.552 15 29 15.448 29 16V17ZM33 25H31V19H33V25ZM35 17V16C35 15.448 35.448 15 36 15C36.552 15 37 15.448 37 16C37 16.552 36.552 17 36 17H35ZM22 27H42C42.552 27 43 27.448 43 28V31H21V28C21 27.448 21.448 27 22 27ZM19 34C19 33.448 19.448 33 20 33H44C44.552 33 45 33.448 45 34V35H19V34ZM27 61H25V51H27V61ZM41 61H39V57H37V61H35V51H41V61ZM21 49V47H43V49H21ZM43 45H21V41H43V45ZM47 39H17L16.998 37H17H47V39Z" fill="black"/>
</svg>
