<svg width="65" height="65" viewBox="0 0 65 65" fill="none" xmlns="http://www.w3.org/2000/svg">
<g clip-path="url(#clip0_1_390)">
<path d="M9.09079 7.75567C2.74898 14.7966 3.31879 25.6453 10.3633 31.9831L39.2666 58.3156C44.7345 63.2377 53.1904 62.7936 58.1125 57.3257C63.0347 51.8579 62.5906 43.4039 57.1229 38.4836L28.2176 12.1513C24.3046 8.62877 18.2796 8.94522 14.7571 12.8583C11.2365 16.7712 11.553 22.7981 15.464 26.3169L37.4396 46.0993C38.2249 46.8044 39.4261 46.7413 40.1332 45.9578C40.8384 45.1744 40.7752 43.9713 39.9918 43.266L18.0142 23.4819C15.6719 21.3715 15.4817 17.7508 17.5901 15.4067C19.7004 13.0625 23.323 12.8722 25.6672 14.9825L54.5705 41.3149C58.4836 44.8374 58.7999 50.8605 55.2774 54.7736C51.7568 58.6865 45.7299 59.0031 41.8188 55.4804L13.1962 29.4062C7.71837 24.4751 7.27504 16.0344 12.2066 10.5641C17.1395 5.08236 26.4599 4.5 32 9.5C32.2193 9.69796 32.1241 5.49999 32.1241 5.49999C27 2.5 15.4286 0.711171 9.09079 7.75567Z" fill="#333333"/>
</g>
<defs>
<clipPath id="clip0_1_390">
<rect width="61" height="61" fill="white" transform="translate(3.19971 64.1155) rotate(-93.0066)"/>
</clipPath>
</defs>
</svg>
