<svg width="15" height="15" viewBox="0 0 15 15" fill="none" xmlns="http://www.w3.org/2000/svg">
<g clip-path="url(#clip0_1_1188)">
<path fill-rule="evenodd" clip-rule="evenodd" d="M7.5 15C11.6421 15 15 11.6421 15 7.5C15 3.35786 11.6421 0 7.5 0C3.35786 0 0 3.35786 0 7.5C0 11.6421 3.35786 15 7.5 15Z" fill="black"/>
<path fill-rule="evenodd" clip-rule="evenodd" d="M7.49991 8.36536L11.8268 4.61536H3.17298L7.49991 8.36536ZM6.3312 7.95024L7.49991 8.90953L8.6503 7.95024L11.8268 10.673H3.17298L6.3312 7.95024ZM2.88452 10.3846V4.90382L6.0576 7.6442L2.88452 10.3846ZM12.1153 10.3846V4.90382L8.94221 7.6442L12.1153 10.3846Z" fill="white"/>
</g>
<defs>
<clipPath id="clip0_1_1188">
<rect width="15" height="15" fill="white"/>
</clipPath>
</defs>
</svg>
