<svg width="32" height="32" viewBox="0 0 32 32" fill="none" xmlns="http://www.w3.org/2000/svg">
<g clip-path="url(#clip0_1_1351)">
<path d="M16 25C11.735 25 7.69901 23.193 4.63301 19.912C4.25601 19.509 4.27801 18.876 4.68101 18.499C5.08501 18.122 5.71701 18.144 6.09501 18.547C8.77801 21.419 12.295 23 16 23C20.763 23 25.149 20.395 27.84 16C25.15 11.605 20.763 9 16 9C11.062 9 6.52801 11.801 3.87001 16.493C3.59801 16.974 2.98601 17.144 2.50701 16.87C2.02601 16.598 1.85801 15.988 2.13001 15.507C5.14701 10.18 10.333 7 16 7C21.668 7 26.853 10.18 29.87 15.507C30.043 15.813 30.043 16.187 29.87 16.492C26.853 21.819 21.668 25 16 25Z" fill="white"/>
<path d="M16 21C13.243 21 11 18.757 11 16C11 13.243 13.243 11 16 11C18.757 11 21 13.243 21 16C21 18.757 18.757 21 16 21ZM16 13C14.346 13 13 14.346 13 16C13 17.654 14.346 19 16 19C17.654 19 19 17.654 19 16C19 14.346 17.654 13 16 13Z" fill="white"/>
</g>
<defs>
<clipPath id="clip0_1_1351">
<rect width="32" height="32" fill="white"/>
</clipPath>
</defs>
</svg>
