<svg width="44" height="44" viewBox="0 0 44 44" fill="none" xmlns="http://www.w3.org/2000/svg">
<circle cx="22" cy="22" r="22" fill="black"/>
<g clip-path="url(#clip0_123_38)">
<path d="M22 31C17.735 31 13.699 29.193 10.633 25.912C10.256 25.509 10.278 24.876 10.681 24.499C11.085 24.122 11.717 24.144 12.095 24.547C14.778 27.419 18.295 29 22 29C26.763 29 31.149 26.395 33.84 22C31.15 17.605 26.763 15 22 15C17.062 15 12.528 17.801 9.87001 22.493C9.59801 22.974 8.98601 23.144 8.50701 22.87C8.02601 22.598 7.85801 21.988 8.13001 21.507C11.147 16.18 16.333 13 22 13C27.668 13 32.853 16.18 35.87 21.507C36.043 21.813 36.043 22.187 35.87 22.492C32.853 27.819 27.668 31 22 31Z" fill="white"/>
<path d="M22 27C19.243 27 17 24.757 17 22C17 19.243 19.243 17 22 17C24.757 17 27 19.243 27 22C27 24.757 24.757 27 22 27ZM22 19C20.346 19 19 20.346 19 22C19 23.654 20.346 25 22 25C23.654 25 25 23.654 25 22C25 20.346 23.654 19 22 19Z" fill="white"/>
</g>
<defs>
<clipPath id="clip0_123_38">
<rect width="32" height="32" fill="white" transform="translate(6 6)"/>
</clipPath>
</defs>
</svg>
