<svg width="16" height="16" viewBox="0 0 16 16" fill="none" xmlns="http://www.w3.org/2000/svg">
<g clip-path="url(#clip0_1_1198)">
<path d="M13.0154 2.21043C10.086 -0.71806 5.33728 -0.717357 2.40879 2.21204C-0.519696 5.14143 -0.518993 9.89016 2.4104 12.8186C5.3398 15.7471 10.0885 15.7464 13.017 12.817C14.4234 11.4102 15.2133 9.50221 15.2129 7.51293C15.2125 5.52396 14.422 3.61662 13.0154 2.21043ZM11.5714 10.4619C11.5714 10.4619 11.5707 10.4626 11.5704 10.4629V10.4605L11.1904 10.8379C10.6989 11.3356 9.98317 11.5404 9.30287 11.3779C8.61747 11.1945 7.96591 10.9025 7.37288 10.513C6.82193 10.1608 6.31134 9.74921 5.85038 9.28545C5.42625 8.86442 5.04522 8.40211 4.71287 7.90545C4.34936 7.37101 4.06163 6.78882 3.85787 6.17544C3.62429 5.45485 3.81785 4.66416 4.35788 4.13295L4.80287 3.68796C4.92659 3.56368 5.12763 3.56324 5.25188 3.68696C5.25188 3.68696 5.25255 3.6876 5.25287 3.68796L6.65786 5.09295C6.78214 5.21667 6.78258 5.4177 6.65886 5.54195C6.65886 5.54195 6.65821 5.54259 6.65786 5.54295L5.83286 6.36795C5.59614 6.60209 5.56638 6.97416 5.76287 7.24296C6.06126 7.65247 6.39147 8.03781 6.75038 8.39546C7.15055 8.79736 7.58558 9.16296 8.05037 9.48798C8.31894 9.6753 8.68304 9.64372 8.91536 9.41297L9.71285 8.60297C9.83657 8.4787 10.0376 8.47826 10.1619 8.60198C10.1619 8.60198 10.1625 8.60262 10.1629 8.60297L11.5704 10.013C11.6947 10.1367 11.6951 10.3377 11.5714 10.4619Z" fill="black"/>
</g>
<defs>
<clipPath id="clip0_1_1198">
<rect width="15" height="15" fill="white" transform="translate(0.212891 0.0146484)"/>
</clipPath>
</defs>
</svg>
