<svg width="37" height="43" viewBox="0 0 37 43" fill="none" xmlns="http://www.w3.org/2000/svg">
<g clip-path="url(#clip0_1_1206)">
<path d="M18.4993 0.533443C27.6659 0.626699 35.4844 6.665 36.7682 14.8249C37.744 20.9914 35.5229 26.1787 30.3363 30.247C26.1638 33.5226 22.6718 37.2878 19.9757 41.6592C19.2825 42.7899 17.8317 42.8132 17.1513 41.6941C14.3269 37.078 10.5653 33.1846 6.16173 29.7458C-3.67242 22.0988 -1.36152 7.17791 10.3855 2.20039C13.1201 1.04635 15.7519 0.510129 18.4993 0.533443ZM18.5635 10.4069C14.2755 10.4185 10.8605 13.5426 10.8734 17.436C10.8862 21.2478 14.3526 24.3603 18.602 24.3603C22.813 24.3603 26.2665 21.1896 26.2537 17.3661C26.228 13.5309 22.7745 10.4069 18.5635 10.4069Z" fill="black"/>
</g>
<defs>
<clipPath id="clip0_1_1206">
<rect width="37" height="42" fill="white" transform="translate(0 0.533691)"/>
</clipPath>
</defs>
</svg>
