<svg width="24" height="24" viewBox="0 0 24 24" fill="none" xmlns="http://www.w3.org/2000/svg">
<path d="M9.75 8.25C10.2 8.25 10.5 7.95 10.5 7.5C10.5 7.05 10.2 6.75 9.75 6.75C6 6.75 3 9.75 3 13.5C3 15.6 4.65 17.25 6.75 17.25C8.85 17.25 10.5 15.6 10.5 13.5C10.5 11.4 8.85 9.75 6.75 9.75C6.525 9.75 6.225 9.75 6 9.825C6.975 8.85 8.25 8.25 9.75 8.25Z" fill="#D9D9D9"/>
<path d="M17.25 9.75C17.025 9.75 16.725 9.75 16.5 9.825C17.475 8.85 18.75 8.25 20.25 8.25C20.7 8.25 21 7.95 21 7.5C21 7.05 20.7 6.75 20.25 6.75C16.5 6.75 13.5 9.75 13.5 13.5C13.5 15.6 15.15 17.25 17.25 17.25C19.35 17.25 21 15.6 21 13.5C21 11.4 19.35 9.75 17.25 9.75Z" fill="#D9D9D9"/>
</svg>
