<svg width="29" height="29" viewBox="0 0 29 29" fill="none" xmlns="http://www.w3.org/2000/svg">
<path d="M25.1031 23.8344L20.2275 18.9587C21.5688 17.3275 22.4025 15.2794 22.4025 13.0138C22.4206 7.84812 18.1975 3.625 13.0138 3.625C7.83 3.625 3.625 7.84812 3.625 13.0138C3.625 18.1794 7.84812 22.4025 13.0138 22.4025C15.2794 22.4025 17.3275 21.5688 18.9587 20.2275L23.8344 25.1031C24.0156 25.2844 24.2512 25.375 24.4688 25.375C24.6863 25.375 24.94 25.2844 25.1031 25.1031C25.4656 24.7588 25.4656 24.1787 25.1031 23.8344ZM5.4375 13.0138C5.4375 8.845 8.845 5.4375 13.0138 5.4375C17.1825 5.4375 20.59 8.845 20.59 13.0138C20.59 17.1825 17.1825 20.59 13.0138 20.59C8.845 20.59 5.4375 17.2006 5.4375 13.0138Z" fill="white"/>
</svg>
