<svg width="26" height="25" viewBox="0 0 26 25" fill="none" xmlns="http://www.w3.org/2000/svg">
<g clip-path="url(#clip0_21_49)">
<path d="M12.5728 25C19.4763 25 25.0728 19.4036 25.0728 12.5C25.0728 5.59644 19.4763 0 12.5728 0C5.66919 0 0.0727539 5.59644 0.0727539 12.5C0.0727539 19.4036 5.66919 25 12.5728 25Z" fill="url(#paint0_linear_21_49)"/>
<path d="M18.8793 7.46455L16.6479 18.7194C16.6479 18.7194 16.3354 19.5007 15.476 19.1247L10.3246 15.1745L8.44962 14.2712L5.29533 13.2116C5.29533 13.2116 4.81193 13.0407 4.7631 12.6647C4.71427 12.2888 5.30997 12.0886 5.30997 12.0886L17.849 7.17158C17.849 7.1667 18.8793 6.7126 18.8793 7.46455Z" fill="white"/>
<path d="M10.1411 18.623C10.1411 18.623 9.98975 18.6084 9.8042 18.0176C9.61865 17.4268 8.6665 14.3018 8.6665 14.3018L16.2397 9.49219C16.2397 9.49219 16.6792 9.22852 16.6597 9.49219C16.6597 9.49219 16.7378 9.54102 16.5034 9.75586C16.269 9.97559 10.5562 15.1123 10.5562 15.1123" fill="#D2E4F0"/>
<path d="M12.5972 16.3916L10.561 18.252C10.561 18.252 10.3999 18.374 10.229 18.2959L10.6196 14.8438" fill="#B5CFE4"/>
</g>
<defs>
<linearGradient id="paint0_linear_21_49" x1="12.5728" y1="0" x2="12.5728" y2="24.9088" gradientUnits="userSpaceOnUse">
<stop stop-color="#41BCE7"/>
<stop offset="1" stop-color="#22A6DC"/>
</linearGradient>
<clipPath id="clip0_21_49">
<rect width="25" height="25" fill="white" transform="translate(0.0727539)"/>
</clipPath>
</defs>
</svg>
