<svg width="17" height="17" viewBox="0 0 17 17" fill="none" xmlns="http://www.w3.org/2000/svg">
<g clip-path="url(#clip0_2_2126)">
<path d="M8.5 17C13.1944 17 17 13.1944 17 8.5C17 3.80558 13.1944 0 8.5 0C3.80558 0 0 3.80558 0 8.5C0 13.1944 3.80558 17 8.5 17Z" fill="url(#paint0_linear_2_2126)"/>
<path d="M12.7885 5.07589L11.2711 12.7292C11.2711 12.7292 11.0586 13.2605 10.4742 13.0048L6.97127 10.3187L5.69627 9.70441L3.55135 8.9839C3.55135 8.9839 3.22264 8.86769 3.18944 8.61203C3.15623 8.35636 3.56131 8.22023 3.56131 8.22023L12.0879 4.87668C12.0879 4.87335 12.7885 4.56457 12.7885 5.07589Z" fill="white"/>
<path d="M6.84648 12.6637C6.84648 12.6637 6.74355 12.6537 6.61738 12.252C6.49121 11.8502 5.84375 9.7252 5.84375 9.7252L10.9936 6.45469C10.9936 6.45469 11.2924 6.27539 11.2791 6.45469C11.2791 6.45469 11.3322 6.48789 11.1728 6.63398C11.0135 6.7834 7.12871 10.2764 7.12871 10.2764" fill="#D2E4F0"/>
<path d="M8.5166 11.1463L7.13203 12.4113C7.13203 12.4113 7.02246 12.4943 6.90625 12.4412L7.17188 10.0938" fill="#B5CFE4"/>
</g>
<defs>
<linearGradient id="paint0_linear_2_2126" x1="8.5" y1="0" x2="8.5" y2="16.938" gradientUnits="userSpaceOnUse">
<stop stop-color="#41BCE7"/>
<stop offset="1" stop-color="#22A6DC"/>
</linearGradient>
<clipPath id="clip0_2_2126">
<rect width="17" height="17" fill="white"/>
</clipPath>
</defs>
</svg>
