<svg width="42" height="42" viewBox="0 0 42 42" fill="none" xmlns="http://www.w3.org/2000/svg">
<path d="M30.1088 11.8125V29.6625H17.43C17.3781 28.8571 17.0216 28.1016 16.4329 27.5496C15.8442 26.9976 15.0674 26.6903 14.2603 26.6903C13.4532 26.6903 12.6764 26.9976 12.0877 27.5496C11.499 28.1016 11.1425 28.8571 11.0906 29.6625H7.875V11.8125H30.1088Z" stroke="white" stroke-linecap="round" stroke-linejoin="round"/>
<path d="M40.6881 23.3625V29.6625H38.575C38.5231 28.8571 38.1666 28.1016 37.5779 27.5496C36.9892 26.9976 36.2124 26.6903 35.4053 26.6903C34.5982 26.6903 33.8214 26.9976 33.2327 27.5496C32.644 28.1016 32.2875 28.8571 32.2356 29.6625H30.1094V17.0625H34.5325L40.6881 23.3625Z" stroke="white" stroke-linecap="round" stroke-linejoin="round"/>
<path d="M40.6881 23.3625V29.6626H38.575C38.5231 28.8572 38.1666 28.1017 37.5779 27.5496C36.9892 26.9976 36.2124 26.6904 35.4053 26.6904C34.5982 26.6904 33.8214 26.9976 33.2327 27.5496C32.644 28.1017 32.2875 28.8572 32.2356 29.6626H30.1094V23.3625H40.6881Z" stroke="white" stroke-linecap="round" stroke-linejoin="round"/>
<path d="M14.2544 32.8125C16.0086 32.8125 17.4306 31.4021 17.4306 29.6625C17.4306 27.9228 16.0086 26.5125 14.2544 26.5125C12.5002 26.5125 11.0781 27.9228 11.0781 29.6625C11.0781 31.4021 12.5002 32.8125 14.2544 32.8125Z" stroke="white" stroke-linecap="round" stroke-linejoin="round"/>
<path d="M35.3989 32.8125C37.1531 32.8125 38.5752 31.4021 38.5752 29.6625C38.5752 27.9228 37.1531 26.5125 35.3989 26.5125C33.6447 26.5125 32.2227 27.9228 32.2227 29.6625C32.2227 31.4021 33.6447 32.8125 35.3989 32.8125Z" stroke="white" stroke-linecap="round" stroke-linejoin="round"/>
<path d="M1.3125 13.9125H4.73813" stroke="white" stroke-linecap="round" stroke-linejoin="round"/>
<path d="M1.3125 18.1125H4.73813" stroke="white" stroke-linecap="round" stroke-linejoin="round"/>
<path d="M1.3125 22.3125H4.73813" stroke="white" stroke-linecap="round" stroke-linejoin="round"/>
</svg>
