<svg width="17" height="17" viewBox="0 0 17 17" fill="none" xmlns="http://www.w3.org/2000/svg">
<g clip-path="url(#clip0_2_2133)">
<path d="M8.49878 16.9976C13.1925 16.9976 16.9976 13.1925 16.9976 8.49878C16.9976 3.80503 13.1925 0 8.49878 0C3.80503 0 0 3.80503 0 8.49878C0 13.1925 3.80503 16.9976 8.49878 16.9976Z" fill="#7A519B"/>
<path d="M11.7112 13.6028C11.322 13.4804 11.1506 13.4412 10.9769 13.3727C7.64294 11.975 5.21717 9.66424 3.86598 6.27158C3.75748 6.01704 3.70784 5.74129 3.72076 5.4649C3.73367 5.1885 3.80882 4.91859 3.94059 4.67528C4.07236 4.43197 4.25736 4.22155 4.48179 4.05971C4.70622 3.89786 4.96428 3.78876 5.23675 3.74055C5.39586 3.70628 5.65532 3.70383 5.72631 3.79685C6.35193 4.54234 6.93463 5.32282 7.47159 6.1345C7.56706 6.28871 7.30514 6.8101 7.0726 6.99613C6.54143 7.4196 6.49737 7.91406 6.84985 8.36935C7.3431 9.01062 7.90177 9.59882 8.51681 10.1244C9.05532 10.5822 9.60608 10.6531 10.1666 9.97021C10.7272 9.28727 11.3563 9.55164 12.8592 10.7853C13.481 11.2945 13.6401 11.8256 13.104 12.4131C12.6665 12.84 12.2012 13.2374 11.7112 13.6028Z" fill="white"/>
<path d="M13.4176 8.30433L13.1288 8.81837C12.9704 8.61608 12.8456 8.38962 12.7592 8.14767C12.3308 5.70966 11.4863 4.85048 9.01159 4.36092C8.82311 4.32175 8.6689 4.13572 8.5 4.01822C8.68603 3.91786 8.86717 3.74162 9.0581 3.72693C11.2146 3.56783 13.3932 5.75127 13.4176 8.30433Z" fill="white"/>
<path d="M11.9122 7.83095L11.55 8.24708C11.4349 8.07083 11.2391 7.90438 11.2171 7.71835C11.0775 6.40388 10.3603 5.67199 9.06544 5.437C8.85983 5.40028 8.68848 5.17019 8.5 5.03066C8.74478 4.94009 8.98956 4.74916 9.21231 4.78588C9.9551 4.87968 10.6385 5.24025 11.1352 5.80045C11.6319 6.36064 11.908 7.08227 11.9122 7.83095Z" fill="white"/>
<path d="M10.9479 7.42287L10.7031 7.7827C10.566 7.6652 10.4241 7.5575 10.2992 7.43266C9.99079 7.12668 9.68971 6.81826 9.39108 6.50494C9.26379 6.37276 9.1463 6.22834 9.03125 6.08882C9.20015 6.00069 9.3666 5.84403 9.5355 5.84403C10.2184 5.8269 10.943 6.58572 10.9479 7.42287Z" fill="white"/>
</g>
<defs>
<clipPath id="clip0_2_2133">
<rect width="17" height="17" fill="white"/>
</clipPath>
</defs>
</svg>
