<svg width="26" height="25" viewBox="0 0 26 25" fill="none" xmlns="http://www.w3.org/2000/svg">
<g clip-path="url(#clip0_21_56)">
<path d="M12.571 24.9964C19.4735 24.9964 25.0692 19.4008 25.0692 12.4982C25.0692 5.59564 19.4735 0 12.571 0C5.66839 0 0.0727539 5.59564 0.0727539 12.4982C0.0727539 19.4008 5.66839 24.9964 12.571 24.9964Z" fill="#7A519B"/>
<path d="M17.2951 20.004C16.7227 19.8241 16.4708 19.7665 16.2152 19.6657C11.3124 17.6102 7.74506 14.2121 5.75802 9.22291C5.59846 8.84859 5.52545 8.44308 5.54445 8.03662C5.56345 7.63015 5.67396 7.23322 5.86774 6.87541C6.06153 6.51761 6.33358 6.20817 6.66362 5.97015C6.99366 5.73214 7.37317 5.57171 7.77385 5.50081C8.00784 5.45041 8.38941 5.44681 8.4938 5.5836C9.41383 6.67991 10.2707 7.82767 11.0604 9.02133C11.2008 9.24811 10.8156 10.0148 10.4736 10.2884C9.6925 10.9112 9.62771 11.6383 10.1461 12.3079C10.8714 13.2509 11.693 14.1159 12.5975 14.8889C13.3894 15.562 14.1993 15.6664 15.0237 14.6621C15.848 13.6578 16.7731 14.0465 18.9834 15.8608C19.8977 16.6095 20.1317 17.3907 19.3433 18.2546C18.6999 18.8823 18.0157 19.4667 17.2951 20.004Z" fill="white"/>
<path d="M19.8046 12.2122L19.3798 12.9682C19.1469 12.6707 18.9633 12.3377 18.8363 11.9819C18.2063 8.39655 16.9644 7.13305 13.3251 6.41311C13.0479 6.35552 12.8211 6.08194 12.5728 5.90915C12.8463 5.76156 13.1127 5.50238 13.3935 5.48079C16.5648 5.2468 19.7686 8.45775 19.8046 12.2122Z" fill="white"/>
<path d="M17.5908 11.5161L17.058 12.1281C16.8888 11.8689 16.6008 11.6241 16.5684 11.3505C16.3632 9.41747 15.3085 8.34116 13.4043 7.99558C13.1019 7.94159 12.8499 7.60321 12.5728 7.39803C12.9327 7.26484 13.2927 6.98406 13.6203 7.03806C14.7126 7.176 15.7176 7.70625 16.448 8.53007C17.1785 9.35389 17.5846 10.4151 17.5908 11.5161Z" fill="white"/>
<path d="M16.1726 10.916L15.8126 11.4451C15.611 11.2724 15.4022 11.114 15.2187 10.9304C14.7651 10.4804 14.3223 10.0269 13.8832 9.56609C13.696 9.37171 13.5232 9.15932 13.354 8.95414C13.6024 8.82455 13.8472 8.59417 14.0955 8.59417C15.0999 8.56897 16.1654 9.68488 16.1726 10.916Z" fill="white"/>
</g>
<defs>
<clipPath id="clip0_21_56">
<rect width="25" height="25" fill="white" transform="translate(0.0727539)"/>
</clipPath>
</defs>
</svg>
