<svg width="161" height="161" viewBox="0 0 161 161" fill="none" xmlns="http://www.w3.org/2000/svg">
<path d="M133.911 87.214V51.7809H122.999C122.377 50.021 121.655 48.2868 120.846 46.5939L128.564 38.8753L103.511 13.8202L95.7906 21.5387C94.0938 20.7277 92.3595 20.0072 90.6036 19.3851V8.47369H55.1705V19.3832C53.4165 20.0052 51.6823 20.7257 49.9834 21.5387L42.263 13.8202L17.2098 38.8753L24.9283 46.5939C24.1192 48.2868 23.3968 50.021 22.7747 51.7809H11.8633V87.214H22.7747C23.3968 88.9739 24.1192 90.7081 24.9283 92.4011L17.2098 100.12L42.2649 125.175L49.9854 117.456C51.6803 118.267 53.4165 118.99 55.1724 119.612V130.521H90.6056V122.647H89.9284L90.7828 121.793C91.9895 122.409 93.2473 122.931 94.5426 123.348V130.521H110.291V123.35C111.586 122.933 112.844 122.411 114.051 121.795L119.119 126.864L130.253 115.728L125.184 110.659C125.803 109.452 126.322 108.194 126.742 106.899H133.911V91.1511H126.74C126.32 89.8558 125.801 88.5979 125.182 87.3912L125.36 87.214H133.911ZM129.297 83.277L129.974 82.5999V83.277H129.297ZM57.7453 116.326C55.2748 115.529 52.8339 114.515 50.4894 113.314L49.2138 112.659L42.2649 119.608L22.7787 100.12L29.7255 93.1727L29.072 91.8971C27.8751 89.5585 26.8613 87.1176 26.0602 84.6412L25.6173 83.277H15.8003V55.7179H25.6173L26.0582 54.3557C26.8594 51.8793 27.8732 49.4364 29.07 47.0998L29.7236 45.8242L22.7767 38.8773L42.263 19.3891L49.2118 26.3379L50.4874 25.6844C52.8358 24.4816 55.2768 23.4678 57.7433 22.6706L59.1075 22.2296V12.4107H86.6666V22.2277L88.0288 22.6686C90.4973 23.4659 92.9383 24.4796 95.2847 25.6824L96.5603 26.3359L103.509 19.3871L122.995 38.8753L116.049 45.8222L116.702 47.0978C117.899 49.4364 118.913 51.8773 119.714 54.3537L120.157 55.7179H129.974V82.0428L121.934 74.0034C123.228 72.9187 124.068 71.3124 124.068 69.4975C124.068 66.2415 121.419 63.5919 118.163 63.5919C114.907 63.5919 112.257 66.2415 112.257 69.4975C112.257 71.8085 113.604 73.7927 115.543 74.7613L114.049 76.2553C112.842 75.6392 111.584 75.1176 110.289 74.7002V67.529H108.22C107.19 48.9088 91.7591 34.0643 72.887 34.0643C53.3496 34.0643 37.4539 49.96 37.4539 69.4975C37.4539 88.3715 52.2984 103.801 70.9185 104.83V106.899H78.0898C78.5091 108.194 79.0288 109.452 79.6469 110.659L78.1528 112.153C77.1823 110.214 75.1981 108.868 72.887 108.868C69.6311 108.868 66.9815 111.517 66.9815 114.773C66.9815 118.029 69.6311 120.679 72.887 120.679C74.702 120.679 76.3083 119.838 77.393 118.545L85.4324 126.584H59.1075V116.765L57.7453 116.326ZM118.163 71.466C117.076 71.466 116.194 70.5821 116.194 69.4975C116.194 68.4128 117.076 67.529 118.163 67.529C119.249 67.529 120.131 68.4128 120.131 69.4975C120.131 70.5821 119.249 71.466 118.163 71.466ZM79.6469 87.3912C79.0288 88.5979 78.5091 89.8558 78.0898 91.1511H70.9185V93.0192C58.8122 92.0133 49.2649 81.8577 49.2649 69.4975C49.2649 56.4718 59.8614 45.8754 72.887 45.8754C85.2493 45.8754 95.4029 55.4246 96.4088 67.529H94.5406V74.7002C93.2454 75.1176 91.9875 75.6392 90.7808 76.2553L85.7119 71.1864L74.578 82.3223L79.6469 87.3912ZM100.346 67.529C99.33 53.2514 87.4186 41.9383 72.887 41.9383C57.6902 41.9383 45.3279 54.3006 45.3279 69.4975C45.3279 84.029 56.6409 95.9404 70.9185 96.9562V100.893C54.4697 99.8696 41.3909 86.2003 41.3909 69.4975C41.3909 52.1313 55.5209 38.0013 72.887 38.0013C89.5898 38.0013 103.259 51.0801 104.283 67.529H100.346ZM72.887 116.742C71.8004 116.742 70.9185 115.858 70.9185 114.773C70.9185 113.689 71.8004 112.805 72.887 112.805C73.9737 112.805 74.8556 113.689 74.8556 114.773C74.8556 115.858 73.9737 116.742 72.887 116.742ZM86.6666 126.584H85.9914L86.6666 125.909V126.584ZM129.974 95.0881V102.962H123.738L123.356 104.438C122.85 106.401 122.076 108.273 121.053 110.005L120.277 111.318L124.684 115.728L119.117 121.297L114.708 116.887L113.393 117.665C111.663 118.687 109.791 119.462 107.828 119.968L106.352 120.348V126.584H98.4777V120.348L97.0013 119.968C95.0387 119.462 93.1666 118.687 91.4363 117.665L90.1213 116.887L85.7119 121.297L80.1449 115.728L84.5524 111.318L83.7768 110.005C82.7532 108.273 81.9796 106.401 81.4737 104.438L81.0918 102.962H74.8556V95.0881H81.0918L81.4737 93.6117C81.9796 91.6491 82.7532 89.777 83.7768 88.0448L84.5524 86.7318L80.1449 82.3223L85.7119 76.7534L90.1213 81.1628L91.4363 80.3853C93.1666 79.3636 95.0387 78.588 97.0013 78.0821L98.4777 77.7022V71.466H106.352V77.7022L107.828 78.0821C109.791 78.588 111.663 79.3636 113.393 80.3853L114.708 81.1628L119.117 76.7534L124.684 82.3223L120.277 86.7318L121.053 88.0448C122.076 89.777 122.85 91.6491 123.356 93.6117L123.738 95.0881H129.974Z" fill="white"/>
<path d="M72.887 30.1273C76.1429 30.1273 78.7925 27.4777 78.7925 24.2217C78.7925 20.9658 76.1429 18.3162 72.887 18.3162C69.6311 18.3162 66.9814 20.9658 66.9814 24.2217C66.9814 27.4777 69.6311 30.1273 72.887 30.1273ZM72.887 22.2532C73.9736 22.2532 74.8555 23.1371 74.8555 24.2217C74.8555 25.3064 73.9736 26.1903 72.887 26.1903C71.8004 26.1903 70.9185 25.3064 70.9185 24.2217C70.9185 23.1371 71.8004 22.2532 72.887 22.2532Z" fill="white"/>
<path d="M27.6116 63.5919C24.3557 63.5919 21.7061 66.2415 21.7061 69.4974C21.7061 72.7534 24.3557 75.403 27.6116 75.403C30.8675 75.403 33.5171 72.7534 33.5171 69.4974C33.5171 66.2415 30.8675 63.5919 27.6116 63.5919ZM27.6116 71.466C26.525 71.466 25.6431 70.5821 25.6431 69.4974C25.6431 68.4128 26.525 67.5289 27.6116 67.5289C28.6982 67.5289 29.5801 68.4128 29.5801 69.4974C29.5801 70.5821 28.6982 71.466 27.6116 71.466Z" fill="white"/>
<path d="M102.415 81.3085C92.6451 81.3085 84.6982 89.2574 84.6982 99.0251C84.6982 108.793 92.6451 116.742 102.415 116.742C112.185 116.742 120.131 108.793 120.131 99.0251C120.131 89.2574 112.185 81.3085 102.415 81.3085ZM102.415 112.805C94.8183 112.805 88.6353 106.624 88.6353 99.0251C88.6353 91.4267 94.8183 85.2455 102.415 85.2455C110.011 85.2455 116.194 91.4267 116.194 99.0251C116.194 106.624 110.011 112.805 102.415 112.805Z" fill="white"/>
</svg>
