<svg width="168" height="168" viewBox="0 0 168 168" fill="none" xmlns="http://www.w3.org/2000/svg">
<path d="M65.625 123.375C56.9389 123.375 49.875 130.439 49.875 139.125C49.875 147.811 56.9389 154.875 65.625 154.875C74.3111 154.875 81.375 147.811 81.375 139.125C81.375 130.439 74.3111 123.375 65.625 123.375ZM65.625 149.625C59.8342 149.625 55.125 144.916 55.125 139.125C55.125 133.334 59.8342 128.625 65.625 128.625C71.4158 128.625 76.125 133.334 76.125 139.125C76.125 144.916 71.4158 149.625 65.625 149.625Z" fill="black"/>
<path d="M165.375 128.625C165.375 113.064 158.204 99.1515 147 89.9981V40.4617L152.476 34.986C154.024 33.4399 154.875 31.3819 154.875 29.1926C154.875 24.675 151.2 21 146.682 21C144.525 21 142.414 21.8741 140.889 23.3992L97.6841 66.6015C91.2056 43.3676 69.8985 26.25 44.625 26.25H2.625V152.25H42.9266C47.4731 160.083 55.9335 165.375 65.625 165.375C75.3165 165.375 83.7769 160.083 88.3234 152.25H165.375V128.625ZM151.507 102.375H139.125C128.486 102.375 119.692 94.416 118.33 84.1444C131.951 85.0028 143.908 91.98 151.507 102.375ZM141.75 86.2969C134.114 81.543 125.136 78.75 115.5 78.75H108.712L141.75 45.7117V86.2969ZM144.601 27.111C145.149 26.565 145.908 26.25 146.682 26.25C148.305 26.25 149.625 27.5704 149.625 29.1926C149.625 29.9801 149.32 30.7177 148.764 31.2742L101.288 78.75H99.6896C99.5925 76.692 99.3536 74.6708 99.036 72.6758L144.601 27.111ZM44.625 31.5C72.1271 31.5 94.5 53.8729 94.5 81.375V84H113.009C113.387 87.7984 114.6 91.35 116.427 94.5H85.5435L63.042 54.0015C60.732 49.8383 56.3351 47.25 51.5708 47.25H7.875V31.5H44.625ZM79.5375 94.5H7.875V52.5H51.5708C54.4294 52.5 57.0675 54.0514 58.4535 56.5504L79.5375 94.5ZM7.875 147V139.125H39.375C39.375 141.868 39.8029 144.511 40.5851 147H7.875ZM65.625 160.125C54.0461 160.125 44.625 150.704 44.625 139.125C44.625 127.546 54.0461 118.125 65.625 118.125C77.2039 118.125 86.625 127.546 86.625 139.125C86.625 150.704 77.2039 160.125 65.625 160.125ZM90.6649 147C91.4498 144.511 91.875 141.868 91.875 139.125H149.625V133.875H91.3447C88.9061 121.908 78.3011 112.875 65.625 112.875C52.9489 112.875 42.3439 121.908 39.9053 133.875H7.875V99.75H120.411C125.178 104.604 131.804 107.625 139.125 107.625H154.854C158.209 113.888 160.125 121.036 160.125 128.625V133.875H154.875V139.125H160.125V147H90.6649Z" fill="black"/>
</svg>
