<svg width="156" height="156" viewBox="0 0 156 156" fill="none" xmlns="http://www.w3.org/2000/svg">
<path d="M148.688 110.136V75.5625C148.688 71.5309 145.407 68.25 141.375 68.25H138.938V48.75C138.938 39.3413 131.284 31.6875 121.875 31.6875H60.5012C53.9004 31.6875 47.8311 35.5534 45.0401 41.535L32.5723 68.25H14.625C10.5934 68.25 7.3125 71.5309 7.3125 75.5625V110.136C4.48256 111.145 2.4375 113.826 2.4375 117V121.875C2.4375 125.907 5.71837 129.188 9.75 129.188H19.6243C20.8601 142.833 32.3505 153.562 46.3125 153.562C60.2745 153.562 71.7649 142.833 73.0007 129.188H85.4344C86.6726 142.833 98.163 153.562 112.125 153.562C126.087 153.562 137.577 142.833 138.813 129.188H146.25C150.282 129.188 153.562 125.907 153.562 121.875V117C153.562 113.826 151.517 111.145 148.688 110.136ZM14.625 73.125H35.6777L49.4593 43.5971C51.4508 39.3242 55.7871 36.5625 60.5012 36.5625H121.875C128.595 36.5625 134.062 42.0298 134.062 48.75V73.125H141.375C142.718 73.125 143.812 74.2194 143.812 75.5625V109.688H126.75V51.1875C126.75 47.1559 123.469 43.875 119.438 43.875H61.8004C58.7925 43.875 56.1283 45.6787 55.0095 48.4721L46.3125 70.2195V109.688H12.1875V75.5625C12.1875 74.2194 13.2819 73.125 14.625 73.125ZM51.1875 73.125H85.3125V109.688H51.1875V73.125ZM52.3502 68.25L59.5384 50.2832C59.9089 49.3521 60.7986 48.75 61.8004 48.75H85.3125V68.25H52.3502ZM90.1875 73.125H95.0625V68.25H90.1875V48.75H119.438C120.781 48.75 121.875 49.8444 121.875 51.1875V68.25H99.9375V73.125H121.875V109.688H90.1875V73.125ZM46.3125 148.688C35.0415 148.688 25.7376 140.139 24.5188 129.188H29.445C30.6345 137.443 37.7349 143.812 46.3125 143.812C54.8901 143.812 61.9905 137.443 63.18 129.188H68.1062C66.8874 140.139 57.5835 148.688 46.3125 148.688ZM34.3712 129.188H58.2538C57.1204 134.743 52.1991 138.938 46.3125 138.938C40.4259 138.938 35.5046 134.743 34.3712 129.188ZM112.125 148.688C100.854 148.688 91.5501 140.139 90.3313 129.188H95.2575C96.447 137.443 103.547 143.812 112.125 143.812C120.703 143.812 127.803 137.443 128.992 129.188H133.919C132.7 140.139 123.396 148.688 112.125 148.688ZM100.184 129.188H124.066C122.933 134.743 118.012 138.938 112.125 138.938C106.238 138.938 101.317 134.743 100.184 129.188ZM148.688 121.875C148.688 123.218 147.593 124.312 146.25 124.312H9.75C8.40694 124.312 7.3125 123.218 7.3125 121.875V117C7.3125 115.657 8.40694 114.562 9.75 114.562H146.25C147.593 114.562 148.688 115.657 148.688 117V121.875Z" fill="white"/>
<path d="M80.4375 78H68.25V82.875H80.4375V78Z" fill="white"/>
<path d="M117 78H104.812V82.875H117V78Z" fill="white"/>
<path d="M70.6875 21.8619V21.9375H119.438V21.8619C121.66 24.8479 125.188 26.8125 129.188 26.8125H138.938V21.9375H129.188C125.156 21.9375 121.875 18.6566 121.875 14.625C121.875 10.5934 125.156 7.3125 129.188 7.3125H138.938V2.4375H129.188C125.188 2.4375 121.66 4.40212 119.438 7.38806V7.3125H70.6875V7.38806C68.4645 4.40212 64.9374 2.4375 60.9375 2.4375H51.1875V7.3125H60.9375C64.9691 7.3125 68.25 10.5934 68.25 14.625C68.25 18.6566 64.9691 21.9375 60.9375 21.9375H51.1875V26.8125H60.9375C64.9374 26.8125 68.4645 24.8479 70.6875 21.8619ZM117.246 12.1875C117.085 12.9748 117 13.7914 117 14.625C117 15.4586 117.085 16.2752 117.246 17.0625H72.8788C73.0397 16.2752 73.125 15.4586 73.125 14.625C73.125 13.7914 73.0397 12.9748 72.8788 12.1875H117.246Z" fill="white"/>
</svg>
